<svg width="434" height="112" viewBox="0 0 434 112" fill="none" xmlns="http://www.w3.org/2000/svg">
<path d="M151.664 82.64C148.037 82.64 144.923 82.0213 142.32 80.784C139.76 79.5467 137.435 77.6907 135.344 75.216L141.104 69.456C142.427 71.2053 143.963 72.5707 145.712 73.552C147.461 74.4907 149.595 74.96 152.112 74.96C154.373 74.96 156.165 74.512 157.488 73.616C158.853 72.72 159.536 71.4827 159.536 69.904C159.536 68.5387 159.152 67.4293 158.384 66.576C157.616 65.7227 156.592 64.9973 155.312 64.4C154.075 63.8027 152.688 63.2693 151.152 62.8C149.659 62.288 148.144 61.712 146.608 61.072C145.115 60.432 143.728 59.6427 142.448 58.704C141.211 57.7227 140.208 56.4853 139.44 54.992C138.672 53.456 138.288 51.536 138.288 49.232C138.288 46.5013 138.949 44.176 140.272 42.256C141.595 40.336 143.408 38.864 145.712 37.84C148.016 36.816 150.619 36.304 153.52 36.304C156.592 36.304 159.365 36.88 161.84 38.032C164.315 39.184 166.341 40.6773 167.92 42.512L162.16 48.272C160.837 46.8213 159.472 45.7547 158.064 45.072C156.699 44.3893 155.141 44.048 153.392 44.048C151.387 44.048 149.808 44.432 148.656 45.2C147.504 45.968 146.928 47.0773 146.928 48.528C146.928 49.7653 147.312 50.768 148.08 51.536C148.848 52.304 149.851 52.9653 151.088 53.52C152.368 54.0747 153.755 54.608 155.248 55.12C156.784 55.632 158.299 56.208 159.792 56.848C161.328 57.488 162.715 58.32 163.952 59.344C165.232 60.368 166.256 61.6907 167.024 63.312C167.792 64.8907 168.176 66.8533 168.176 69.2C168.176 73.3813 166.704 76.6667 163.76 79.056C160.816 81.4453 156.784 82.64 151.664 82.64ZM193.862 82L181.894 66.064L193.798 51.088H203.462L189.51 67.984L189.83 63.888L204.102 82H193.862ZM174.15 82V35.728H182.534V82H174.15ZM215.94 82.256L203.012 51.088H212.1L220.676 74.896H217.604L226.5 51.088H235.652L221.892 82.256H215.94ZM207.364 94.928L216.772 75.024L221.892 82.256L216.26 94.928H207.364Z" fill="#011F53" style="fill:#011F53;fill:color(display-p3 0.0039 0.1216 0.3255);fill-opacity:1;"/>
<path d="M253.852 82.64C250.225 82.64 247.11 82.0213 244.508 80.784C241.948 79.5467 239.622 77.6907 237.532 75.216L243.292 69.456C244.614 71.2053 246.15 72.5707 247.9 73.552C249.649 74.4907 251.782 74.96 254.3 74.96C256.561 74.96 258.353 74.512 259.676 73.616C261.041 72.72 261.724 71.4827 261.724 69.904C261.724 68.5387 261.34 67.4293 260.572 66.576C259.804 65.7227 258.78 64.9973 257.5 64.4C256.262 63.8027 254.876 63.2693 253.34 62.8C251.846 62.288 250.332 61.712 248.796 61.072C247.302 60.432 245.916 59.6427 244.635 58.704C243.398 57.7227 242.396 56.4853 241.628 54.992C240.86 53.456 240.476 51.536 240.476 49.232C240.476 46.5013 241.137 44.176 242.46 42.256C243.782 40.336 245.596 38.864 247.9 37.84C250.204 36.816 252.806 36.304 255.708 36.304C258.78 36.304 261.553 36.88 264.028 38.032C266.502 39.184 268.529 40.6773 270.108 42.512L264.348 48.272C263.025 46.8213 261.66 45.7547 260.252 45.072C258.886 44.3893 257.329 44.048 255.58 44.048C253.574 44.048 251.996 44.432 250.844 45.2C249.692 45.968 249.116 47.0773 249.116 48.528C249.116 49.7653 249.5 50.768 250.268 51.536C251.036 52.304 252.038 52.9653 253.276 53.52C254.556 54.0747 255.942 54.608 257.436 55.12C258.972 55.632 260.486 56.208 261.98 56.848C263.516 57.488 264.902 58.32 266.14 59.344C267.42 60.368 268.444 61.6907 269.212 63.312C269.98 64.8907 270.364 66.8533 270.364 69.2C270.364 73.3813 268.892 76.6667 265.948 79.056C263.004 81.4453 258.972 82.64 253.852 82.64ZM289.521 82.64C286.79 82.64 284.358 82.064 282.225 80.912C280.134 79.76 278.492 78.16 277.297 76.112C276.102 74.064 275.505 71.696 275.505 69.008V51.088H283.953V68.816C283.953 70.096 284.166 71.2053 284.593 72.144C285.02 73.04 285.66 73.7227 286.513 74.192C287.366 74.6613 288.369 74.896 289.521 74.896C291.27 74.896 292.636 74.3627 293.617 73.296C294.598 72.2293 295.089 70.736 295.089 68.816V51.088H303.473V69.008C303.473 71.7387 302.876 74.128 301.681 76.176C300.529 78.224 298.886 79.824 296.753 80.976C294.662 82.0853 292.252 82.64 289.521 82.64ZM310.15 82V51.088H318.534V82H310.15ZM318.534 64.912L315.27 62.736C315.654 58.9387 316.763 55.952 318.598 53.776C320.432 51.5573 323.078 50.448 326.534 50.448C328.027 50.448 329.371 50.704 330.566 51.216C331.76 51.6853 332.848 52.4747 333.83 53.584L328.582 59.6C328.112 59.088 327.536 58.704 326.854 58.448C326.214 58.192 325.467 58.064 324.614 58.064C322.822 58.064 321.35 58.64 320.198 59.792C319.088 60.9013 318.534 62.608 318.534 64.912ZM346.51 82L332.878 51.088H342.094L351.886 76.56H347.342L357.198 51.088H366.094L352.526 82H346.51ZM383.809 82.64C380.566 82.64 377.686 81.9573 375.169 80.592C372.651 79.184 370.646 77.264 369.153 74.832C367.702 72.4 366.977 69.6267 366.977 66.512C366.977 63.44 367.681 60.7093 369.089 58.32C370.539 55.888 372.502 53.968 374.977 52.56C377.451 51.1093 380.203 50.384 383.233 50.384C386.219 50.384 388.843 51.0667 391.105 52.432C393.409 53.7547 395.201 55.5893 396.481 57.936C397.803 60.24 398.465 62.864 398.465 65.808C398.465 66.3627 398.422 66.9387 398.337 67.536C398.294 68.0907 398.187 68.7307 398.017 69.456L372.033 69.52V63.248L394.113 63.184L390.721 65.808C390.635 63.9733 390.294 62.4373 389.697 61.2C389.142 59.9627 388.31 59.024 387.201 58.384C386.134 57.7013 384.811 57.36 383.233 57.36C381.569 57.36 380.118 57.744 378.881 58.512C377.643 59.2373 376.683 60.2827 376.001 61.648C375.361 62.9707 375.041 64.5493 375.041 66.384C375.041 68.2613 375.382 69.904 376.065 71.312C376.79 72.6773 377.814 73.744 379.137 74.512C380.459 75.2373 381.995 75.6 383.745 75.6C385.323 75.6 386.753 75.344 388.033 74.832C389.313 74.2773 390.422 73.4667 391.361 72.4L396.289 77.328C394.795 79.0773 392.961 80.4 390.785 81.296C388.651 82.192 386.326 82.64 383.809 82.64ZM412.878 82.256L399.95 51.088H409.038L417.614 74.896H414.542L423.438 51.088H432.59L418.83 82.256H412.878ZM404.302 94.928L413.71 75.024L418.83 82.256L413.198 94.928H404.302Z" fill="#2376E8" style="fill:#2376E8;fill:color(display-p3 0.1373 0.4627 0.9098);fill-opacity:1;"/>
<path d="M84 102.667V88.6666H70V79.3333H84V65.3333H93.3333V79.3333H107.333V88.6666H93.3333V102.667H84ZM30.3333 95.6666C25.8222 95.6666 21.9722 94.0722 18.7833 90.8833C15.5944 87.6944 14 83.8444 14 79.3333C14 77.0778 14.4278 74.9583 15.2833 72.975C16.1389 70.9916 17.3444 69.2222 18.9 67.6666C17.3444 66.1889 16.1389 64.4389 15.2833 62.4166C14.4278 60.3944 14 58.2555 14 56C14 53.7444 14.4278 51.625 15.2833 49.6416C16.1389 47.6583 17.3444 45.8889 18.9 44.3333C17.3444 42.8555 16.1389 41.1055 15.2833 39.0833C14.4278 37.0611 14 34.9222 14 32.6666C14 28.2333 15.5944 24.4028 18.7833 21.175C21.9722 17.9472 25.8222 16.3333 30.3333 16.3333C32.5889 16.3333 34.7083 16.7805 36.6917 17.675C38.675 18.5694 40.4444 19.7944 42 21.35C43.4778 19.7944 45.2278 18.5694 47.25 17.675C49.2722 16.7805 51.4111 16.3333 53.6667 16.3333H81.6667C86.1 16.3333 89.9305 17.9472 93.1583 21.175C96.3861 24.4028 98 28.2333 98 32.6666C98 34.9222 97.5528 37.0611 96.6583 39.0833C95.7639 41.1055 94.5389 42.8555 92.9833 44.3333C94.7722 46.1222 96.0944 48.1639 96.95 50.4583C97.8056 52.7528 98.1167 55.1444 97.8833 57.6333C96.4056 57.0889 94.8889 56.7 93.3333 56.4666C91.7778 56.2333 90.2222 56.1166 88.6667 56.1166C88.6667 54.1722 87.9861 52.5 86.625 51.1C85.2639 49.7 83.6111 49 81.6667 49H53.6667C51.7222 49 50.0694 49.6805 48.7083 51.0416C47.3472 52.4028 46.6667 54.0555 46.6667 56C46.6667 57.9444 47.3472 59.5972 48.7083 60.9583C50.0694 62.3194 51.7222 63 53.6667 63H70.35C68.8722 64.3222 67.5306 65.7611 66.325 67.3166C65.1194 68.8722 64.0889 70.5444 63.2333 72.3333H53.6667C51.7222 72.3333 50.0694 73.0139 48.7083 74.375C47.3472 75.7361 46.6667 77.3889 46.6667 79.3333C46.6667 81.2778 47.3472 82.9305 48.7083 84.2916C50.0694 85.6528 51.7222 86.3333 53.6667 86.3333H60.7833C60.9389 87.9666 61.2111 89.5611 61.6 91.1166C61.9889 92.6722 62.4944 94.1889 63.1167 95.6666H53.6667C51.4111 95.6666 49.2722 95.2389 47.25 94.3833C45.2278 93.5278 43.4778 92.3222 42 90.7666C40.4444 92.3222 38.675 93.5278 36.6917 94.3833C34.7083 95.2389 32.5889 95.6666 30.3333 95.6666ZM30.3333 86.3333C32.2778 86.3333 33.9306 85.6528 35.2917 84.2916C36.6528 82.9305 37.3333 81.2778 37.3333 79.3333C37.3333 77.3889 36.6528 75.7361 35.2917 74.375C33.9306 73.0139 32.2778 72.3333 30.3333 72.3333C28.3889 72.3333 26.7361 73.0139 25.375 74.375C24.0139 75.7361 23.3333 77.3889 23.3333 79.3333C23.3333 81.2778 24.0139 82.9305 25.375 84.2916C26.7361 85.6528 28.3889 86.3333 30.3333 86.3333ZM30.3333 63C32.2778 63 33.9306 62.3194 35.2917 60.9583C36.6528 59.5972 37.3333 57.9444 37.3333 56C37.3333 54.0555 36.6528 52.4028 35.2917 51.0416C33.9306 49.6805 32.2778 49 30.3333 49C28.3889 49 26.7361 49.6805 25.375 51.0416C24.0139 52.4028 23.3333 54.0555 23.3333 56C23.3333 57.9444 24.0139 59.5972 25.375 60.9583C26.7361 62.3194 28.3889 63 30.3333 63ZM30.3333 39.6666C32.2778 39.6666 33.9306 38.9861 35.2917 37.625C36.6528 36.2639 37.3333 34.6111 37.3333 32.6666C37.3333 30.7222 36.6528 29.0694 35.2917 27.7083C33.9306 26.3472 32.2778 25.6666 30.3333 25.6666C28.3889 25.6666 26.7361 26.3472 25.375 27.7083C24.0139 29.0694 23.3333 30.7222 23.3333 32.6666C23.3333 34.6111 24.0139 36.2639 25.375 37.625C26.7361 38.9861 28.3889 39.6666 30.3333 39.6666ZM53.6667 39.6666H81.6667C83.6111 39.6666 85.2639 38.9861 86.625 37.625C87.9861 36.2639 88.6667 34.6111 88.6667 32.6666C88.6667 30.7222 87.9861 29.0694 86.625 27.7083C85.2639 26.3472 83.6111 25.6666 81.6667 25.6666H53.6667C51.7222 25.6666 50.0694 26.3472 48.7083 27.7083C47.3472 29.0694 46.6667 30.7222 46.6667 32.6666C46.6667 34.6111 47.3472 36.2639 48.7083 37.625C50.0694 38.9861 51.7222 39.6666 53.6667 39.6666Z" fill="url(#paint0_linear_9_30)"/>
<defs>
<linearGradient id="paint0_linear_9_30" x1="17.3981" y1="16.3107" x2="109.825" y2="93.5145" gradientUnits="userSpaceOnUse">
<stop stop-color="#011F53" style="stop-color:#011F53;stop-color:color(display-p3 0.0039 0.1216 0.3255);stop-opacity:1;"/>
<stop offset="0.461538" stop-color="#2376E8" style="stop-color:#2376E8;stop-color:color(display-p3 0.1373 0.4627 0.9098);stop-opacity:1;"/>
</linearGradient>
</defs>
</svg>
